# xmcd
#
# Track frame offsets:
#	150
#	14345
#	29677
#	46381
#	64634
#	78819
#	93337
#	106044
#	116533
#	139728
#	152729
#	166300
#	183854
#	197399
#	211704
#	223757
#	241306
#	253707
#	275171
#	291192
#
# Disc length: 4099 seconds
#
# Revision: 4
# Processed by: cddbd v1.5.2PL0 Copyright (c) Steve Scherf et al.
# Submitted via: EasyCDDAExtractor 15.3.0.1
#
DISCID=13100114
DTITLE=Rocio Durcal - Me Gustas Mucho - Todos Los Grandes Exitos - CD 1
DYEAR=2005
DGENRE=Latin
TTITLE0=Me Gutas Mucho
TTITLE1=Luz De Luna
TTITLE2=Sombras... Nada Mas
TTITLE3=Porque Te Quiero
TTITLE4=Tarde
TTITLE5=Asi Son Los Hombres
TTITLE6=Me Nace Del Corazon
TTITLE7=Cuando Decidas Volver
TTITLE8=Y Nos Dieron Las Diez (Con Joaquin Sabina)
TTITLE9=Echame A Mi La Culpa
TTITLE10=Ya Te Olvide
TTITLE11=Quedate Conmigo Esta Noche
TTITLE12=Fue Un Placer Conocerte
TTITLE13=Si Nos Dejan (En Directo)
TTITLE14=Desaires
TTITLE15=Con Todo Y Mi Tristeza
TTITLE16=Te Sigo Amando
TTITLE17=Frente A Frente
TTITLE18=Para Toda La Vida
TTITLE19=Como Han Pasado Los Años
EXTD=YEAR: 2005
EXTT0=
EXTT1=
EXTT2=
EXTT3=
EXTT4=
EXTT5=
EXTT6=
EXTT7=
EXTT8=
EXTT9=
EXTT10=
EXTT11=
EXTT12=
EXTT13=
EXTT14=
EXTT15=
EXTT16=
EXTT17=
EXTT18=
EXTT19=
PLAYORDER=
